<svg width="48" height="48" viewBox="0 0 48 48" fill="none" xmlns="http://www.w3.org/2000/svg">
<g clip-path="url(#clip0_134_220)">
<path d="M24 45C18.4305 45 13.089 42.7875 9.15076 38.8492C5.21249 34.911 3 29.5695 3 24C3 18.4305 5.21249 13.089 9.15076 9.15076C13.089 5.21249 18.4305 3 24 3C29.5695 3 34.911 5.21249 38.8492 9.15076C42.7875 13.089 45 18.4305 45 24C45 29.5695 42.7875 34.911 38.8492 38.8492C34.911 42.7875 29.5695 45 24 45ZM24 48C30.3652 48 36.4697 45.4714 40.9706 40.9706C45.4714 36.4697 48 30.3652 48 24C48 17.6348 45.4714 11.5303 40.9706 7.02944C36.4697 2.52856 30.3652 0 24 0C17.6348 0 11.5303 2.52856 7.02944 7.02944C2.52856 11.5303 0 17.6348 0 24C0 30.3652 2.52856 36.4697 7.02944 40.9706C11.5303 45.4714 17.6348 48 24 48V48Z" fill="white"/>
<path d="M32.0639 18.4407C32.2036 18.58 32.3144 18.7455 32.39 18.9278C32.4657 19.11 32.5046 19.3054 32.5046 19.5027C32.5046 19.7 32.4657 19.8953 32.39 20.0776C32.3144 20.2598 32.2036 20.4253 32.0639 20.5647L23.0639 29.5647C22.9246 29.7044 22.759 29.8152 22.5768 29.8908C22.3946 29.9664 22.1992 30.0054 22.0019 30.0054C21.8046 30.0054 21.6092 29.9664 21.427 29.8908C21.2448 29.8152 21.0792 29.7044 20.9399 29.5647L16.4399 25.0647C16.3004 24.9252 16.1898 24.7596 16.1143 24.5774C16.0388 24.3952 16 24.1999 16 24.0027C16 23.8054 16.0388 23.6101 16.1143 23.4279C16.1898 23.2457 16.3004 23.0801 16.4399 22.9407C16.5794 22.8012 16.7449 22.6906 16.9271 22.6151C17.1094 22.5396 17.3047 22.5008 17.5019 22.5008C17.6991 22.5008 17.8944 22.5396 18.0766 22.6151C18.2589 22.6906 18.4244 22.8012 18.5639 22.9407L22.0019 26.3817L29.9399 18.4407C30.0792 18.301 30.2448 18.1902 30.427 18.1145C30.6092 18.0389 30.8046 18 31.0019 18C31.1992 18 31.3946 18.0389 31.5768 18.1145C31.759 18.1902 31.9246 18.301 32.0639 18.4407V18.4407Z" fill="white"/>
</g>
<defs>
<clipPath id="clip0_134_220">
<rect width="48" height="48" fill="white"/>
</clipPath>
</defs>
</svg>
