<svg width="60" height="60" viewBox="0 0 60 60" fill="none" xmlns="http://www.w3.org/2000/svg">
<path d="M11.25 54.375C9.75816 54.375 8.32742 53.7824 7.27252 52.7275C6.21763 51.6726 5.625 50.2418 5.625 48.75V11.25C5.625 9.75816 6.21763 8.32742 7.27252 7.27252C8.32742 6.21763 9.75816 5.625 11.25 5.625H41.25C41.7473 5.625 42.2242 5.82254 42.5758 6.17417C42.9275 6.52581 43.125 7.00272 43.125 7.5C43.125 7.99728 42.9275 8.47419 42.5758 8.82582C42.2242 9.17746 41.7473 9.375 41.25 9.375H11.25C10.7527 9.375 10.2758 9.57254 9.92418 9.92418C9.57254 10.2758 9.375 10.7527 9.375 11.25V48.75C9.375 49.2473 9.57254 49.7242 9.92418 50.0758C10.2758 50.4275 10.7527 50.625 11.25 50.625H48.75C49.2473 50.625 49.7242 50.4275 50.0758 50.0758C50.4275 49.7242 50.625 49.2473 50.625 48.75V30C50.625 29.5027 50.8225 29.0258 51.1742 28.6742C51.5258 28.3225 52.0027 28.125 52.5 28.125C52.9973 28.125 53.4742 28.3225 53.8258 28.6742C54.1775 29.0258 54.375 29.5027 54.375 30V48.75C54.375 50.2418 53.7824 51.6726 52.7275 52.7275C51.6726 53.7824 50.2418 54.375 48.75 54.375H11.25Z" fill="black"/>
<path d="M31.3274 38.8279L57.5774 12.5779C57.7518 12.4036 57.89 12.1966 57.9844 11.9689C58.0787 11.7411 58.1273 11.497 58.1273 11.2504C58.1273 11.0039 58.0787 10.7598 57.9844 10.532C57.89 10.3042 57.7518 10.0972 57.5774 9.92291C57.4031 9.74859 57.1961 9.6103 56.9684 9.51595C56.7406 9.42161 56.4965 9.37305 56.2499 9.37305C56.0034 9.37305 55.7593 9.42161 55.5315 9.51595C55.3037 9.6103 55.0968 9.74859 54.9224 9.92291L29.9999 34.8492L20.0774 24.9229C19.9031 24.7486 19.6961 24.6103 19.4684 24.516C19.2406 24.4216 18.9965 24.373 18.7499 24.373C18.5034 24.373 18.2593 24.4216 18.0315 24.516C17.8037 24.6103 17.5968 24.7486 17.4224 24.9229C17.2481 25.0972 17.1098 25.3042 17.0155 25.532C16.9211 25.7597 16.8726 26.0039 16.8726 26.2504C16.8726 26.497 16.9211 26.7411 17.0155 26.9689C17.1098 27.1966 17.2481 27.4036 17.4224 27.5779L28.6724 38.8279C28.8466 39.0025 29.0535 39.1411 29.2813 39.2356C29.5091 39.3301 29.7533 39.3788 29.9999 39.3788C30.2466 39.3788 30.4908 39.3301 30.7186 39.2356C30.9463 39.1411 31.1533 39.0025 31.3274 38.8279Z" fill="black"/>
</svg>
