<svg width="68" height="68" viewBox="0 0 68 68" fill="none" xmlns="http://www.w3.org/2000/svg">
<path d="M12.75 61.625C11.0592 61.625 9.43774 60.9534 8.24219 59.7578C7.04665 58.5623 6.375 56.9408 6.375 55.25V12.75C6.375 11.0592 7.04665 9.43774 8.24219 8.24219C9.43774 7.04665 11.0592 6.375 12.75 6.375H46.75C47.3136 6.375 47.8541 6.59888 48.2526 6.9974C48.6511 7.39591 48.875 7.93641 48.875 8.5C48.875 9.06359 48.6511 9.60409 48.2526 10.0026C47.8541 10.4011 47.3136 10.625 46.75 10.625H12.75C12.1864 10.625 11.6459 10.8489 11.2474 11.2474C10.8489 11.6459 10.625 12.1864 10.625 12.75V55.25C10.625 55.8136 10.8489 56.3541 11.2474 56.7526C11.6459 57.1511 12.1864 57.375 12.75 57.375H55.25C55.8136 57.375 56.3541 57.1511 56.7526 56.7526C57.1511 56.3541 57.375 55.8136 57.375 55.25V34C57.375 33.4364 57.5989 32.8959 57.9974 32.4974C58.3959 32.0989 58.9364 31.875 59.5 31.875C60.0636 31.875 60.6041 32.0989 61.0026 32.4974C61.4011 32.8959 61.625 33.4364 61.625 34V55.25C61.625 56.9408 60.9534 58.5623 59.7578 59.7578C58.5623 60.9534 56.9408 61.625 55.25 61.625H12.75Z" fill="white"/>
<path d="M35.5043 44.0043L65.2543 14.2543C65.4518 14.0567 65.6086 13.8221 65.7155 13.564C65.8224 13.3058 65.8774 13.0292 65.8774 12.7498C65.8774 12.4703 65.8224 12.1937 65.7155 11.9355C65.6086 11.6774 65.4518 11.4428 65.2543 11.2453C65.0567 11.0477 64.8221 10.891 64.564 10.784C64.3058 10.6771 64.0292 10.6221 63.7498 10.6221C63.4703 10.6221 63.1937 10.6771 62.9355 10.784C62.6774 10.891 62.4428 11.0477 62.2453 11.2453L33.9998 39.495L22.7543 28.2453C22.5567 28.0477 22.3221 27.891 22.064 27.784C21.8058 27.6771 21.5292 27.6221 21.2498 27.6221C20.9703 27.6221 20.6937 27.6771 20.4355 27.784C20.1774 27.891 19.9428 28.0477 19.7453 28.2453C19.5477 28.4428 19.391 28.6774 19.284 28.9355C19.1771 29.1937 19.1221 29.4703 19.1221 29.7498C19.1221 30.0292 19.1771 30.3058 19.284 30.564C19.391 30.8221 19.5477 31.0567 19.7453 31.2543L32.4953 44.0043C32.6926 44.2021 32.9271 44.3592 33.1853 44.4663C33.4435 44.5734 33.7202 44.6286 33.9998 44.6286C34.2793 44.6286 34.556 44.5734 34.8142 44.4663C35.0724 44.3592 35.3069 44.2021 35.5043 44.0043Z" fill="white"/>
</svg>
