<svg width="25" height="24" viewBox="0 0 25 24" fill="none" xmlns="http://www.w3.org/2000/svg">
<path fill-rule="evenodd" clip-rule="evenodd" d="M2.96888 6.96936C3.03854 6.89952 3.12131 6.8441 3.21243 6.80629C3.30354 6.76849 3.40122 6.74902 3.49988 6.74902C3.59853 6.74902 3.69621 6.76849 3.78733 6.80629C3.87844 6.8441 3.96121 6.89952 4.03088 6.96936L12.4999 15.4399L20.9689 6.96936C21.0386 6.89963 21.1214 6.84432 21.2125 6.80658C21.3036 6.76884 21.4013 6.74942 21.4999 6.74942C21.5985 6.74942 21.6961 6.76884 21.7873 6.80658C21.8784 6.84432 21.9611 6.89963 22.0309 6.96936C22.1006 7.0391 22.1559 7.12188 22.1937 7.21299C22.2314 7.3041 22.2508 7.40175 22.2508 7.50036C22.2508 7.59898 22.2314 7.69663 22.1937 7.78774C22.1559 7.87885 22.1006 7.96163 22.0309 8.03136L13.0309 17.0314C12.9612 17.1012 12.8784 17.1566 12.7873 17.1944C12.6962 17.2322 12.5985 17.2517 12.4999 17.2517C12.4012 17.2517 12.3035 17.2322 12.2124 17.1944C12.1213 17.1566 12.0385 17.1012 11.9689 17.0314L2.96888 8.03136C2.89903 7.9617 2.84362 7.87893 2.80581 7.78781C2.768 7.6967 2.74854 7.59901 2.74854 7.50036C2.74854 7.40171 2.768 7.30403 2.80581 7.21291C2.84362 7.1218 2.89903 7.03903 2.96888 6.96936V6.96936Z" fill="white"/>
</svg>
