<svg width="24" height="24" viewBox="0 0 24 24" fill="none" xmlns="http://www.w3.org/2000/svg">
<path fill-rule="evenodd" clip-rule="evenodd" d="M2.46912 6.96888C2.53879 6.89903 2.62155 6.84362 2.71267 6.80581C2.80379 6.768 2.90147 6.74854 3.00012 6.74854C3.09877 6.74854 3.19645 6.768 3.28757 6.80581C3.37869 6.84362 3.46145 6.89903 3.53112 6.96888L12.0001 15.4394L20.4691 6.96888C20.5389 6.89914 20.6216 6.84383 20.7127 6.80609C20.8039 6.76835 20.9015 6.74893 21.0001 6.74893C21.0987 6.74893 21.1964 6.76835 21.2875 6.80609C21.3786 6.84383 21.4614 6.89914 21.5311 6.96888C21.6009 7.03861 21.6562 7.12139 21.6939 7.2125C21.7316 7.30361 21.7511 7.40126 21.7511 7.49988C21.7511 7.59849 21.7316 7.69614 21.6939 7.78725C21.6562 7.87836 21.6009 7.96114 21.5311 8.03088L12.5311 17.0309C12.4615 17.1007 12.3787 17.1561 12.2876 17.1939C12.1965 17.2318 12.0988 17.2512 12.0001 17.2512C11.9015 17.2512 11.8038 17.2318 11.7127 17.1939C11.6216 17.1561 11.5388 17.1007 11.4691 17.0309L2.46912 8.03088C2.39928 7.96121 2.34386 7.87844 2.30605 7.78733C2.26824 7.69621 2.24878 7.59853 2.24878 7.49988C2.24878 7.40122 2.26824 7.30354 2.30605 7.21242C2.34386 7.12131 2.39928 7.03854 2.46912 6.96888Z" fill="black"/>
</svg>
