<svg width="68" height="68" viewBox="0 0 68 68" fill="none" xmlns="http://www.w3.org/2000/svg">
<g clip-path="url(#clip0_39_1043)">
<path d="M34 68.068C41.7285 68.0725 49.1954 65.2689 55.0111 60.179C60.8268 55.0891 64.5951 48.0596 65.6149 40.3987C66.6346 32.7378 64.8362 24.9673 60.5544 18.5334C56.2726 12.0994 49.7991 7.44029 42.3385 5.423C42.5203 4.78998 42.5525 4.12338 42.4325 3.4758C42.3125 2.82822 42.0437 2.21739 41.6472 1.6915C41.2507 1.16561 40.7375 0.739059 40.1479 0.44551C39.5583 0.151962 38.9086 -0.000553339 38.25 1.50848e-06H29.75C29.0914 -0.000553339 28.4417 0.151962 27.8521 0.44551C27.2626 0.739059 26.7493 1.16561 26.3528 1.6915C25.9564 2.21739 25.6875 2.82822 25.5676 3.4758C25.4476 4.12338 25.4797 4.78998 25.6615 5.423C18.201 7.44029 11.7274 12.0994 7.44564 18.5334C3.16385 24.9673 1.36548 32.7378 2.3852 40.3987C3.40492 48.0596 7.17328 55.0891 12.989 60.179C18.8047 65.2689 26.2715 68.0725 34 68.068ZM61.625 36.193C61.625 43.5196 58.7145 50.5461 53.5339 55.7268C48.3532 60.9075 41.3266 63.818 34 63.818C26.6734 63.818 19.6469 60.9075 14.4662 55.7268C9.28551 50.5461 6.37502 43.5196 6.37502 36.193C6.37502 28.8664 9.28551 21.8399 14.4662 16.6592C19.6469 11.4785 26.6734 8.568 34 8.568C41.3266 8.568 48.3532 11.4785 53.5339 16.6592C58.7145 21.8399 61.625 28.8664 61.625 36.193Z" fill="#0760C5"/>
<path d="M29.4949 31.6203L50.5324 19.5928L38.5049 40.6303L17.4717 52.6578L29.4907 31.6203H29.4949Z" fill="#0760C5"/>
</g>
<defs>
<clipPath id="clip0_39_1043">
<rect width="68" height="68" fill="white"/>
</clipPath>
</defs>
</svg>
