<svg width="68" height="68" viewBox="0 0 68 68" fill="none" xmlns="http://www.w3.org/2000/svg">
<path fill-rule="evenodd" clip-rule="evenodd" d="M34 4.25038C32.3256 4.25038 30.6677 4.58017 29.1208 5.22091C27.5739 5.86166 26.1683 6.80082 24.9844 7.98477C23.8004 9.16871 22.8613 10.5743 22.2205 12.1212C21.5798 13.6681 21.25 15.326 21.25 17.0004C21.25 18.6747 21.5798 20.3327 22.2205 21.8796C22.8613 23.4265 23.8004 24.832 24.9844 26.016C26.1683 27.1999 27.5739 28.1391 29.1208 28.7798C30.6677 29.4206 32.3256 29.7504 34 29.7504C37.3815 29.7504 40.6245 28.4071 43.0156 26.016C45.4067 23.6249 46.75 20.3819 46.75 17.0004C46.75 13.6189 45.4067 10.3759 43.0156 7.98477C40.6245 5.59368 37.3815 4.25038 34 4.25038V4.25038ZM17 17.0004C17.0003 13.7288 17.9446 10.5269 19.7195 7.77869C21.4945 5.03051 24.0247 2.85286 27.0066 1.50703C29.9885 0.161204 33.2954 -0.295625 36.5305 0.191359C39.7656 0.678342 42.7915 2.08845 45.245 4.25249C47.6986 6.41652 49.4756 9.24255 50.3629 12.3915C51.2501 15.5404 51.2099 18.8785 50.2471 22.0051C49.2843 25.1318 47.4397 27.9142 44.9348 30.0185C42.4298 32.1228 39.3709 33.4597 36.125 33.8686V57.3754C36.125 57.939 35.9011 58.4795 35.5026 58.878C35.1041 59.2765 34.5636 59.5004 34 59.5004C33.4364 59.5004 32.8959 59.2765 32.4974 58.878C32.0989 58.4795 31.875 57.939 31.875 57.3754V33.8729C27.7651 33.3551 23.9857 31.3545 21.2467 28.2469C18.5077 25.1393 16.9975 21.1385 17 16.9961V17.0004ZM27.5953 53.4399C27.6874 53.9955 27.5552 54.5651 27.2277 55.0233C26.9001 55.4815 26.4041 55.791 25.8485 55.8836C22.8225 56.3851 20.4085 57.1374 18.8148 57.9789C18.2293 58.2603 17.6972 58.6414 17.2423 59.1051C17.1394 59.2172 17.0574 59.3467 17 59.4876V59.5004L17.0085 59.5344C17.0252 59.5838 17.0481 59.6309 17.0765 59.6746C17.2442 59.9206 17.4526 60.1361 17.6928 60.3121C18.394 60.8646 19.5415 61.4596 21.148 61.9909C24.3397 63.0534 28.883 63.7504 34 63.7504C39.117 63.7504 43.6603 63.0576 46.852 61.9909C48.4585 61.4554 49.606 60.8646 50.3072 60.3121C50.5488 60.1364 50.7586 59.9208 50.9277 59.6746C50.9547 59.6307 50.9761 59.5836 50.9915 59.5344L51 59.5004V59.4834C50.9426 59.3425 50.8606 59.213 50.7577 59.1009C50.3025 58.6386 49.7704 58.259 49.1852 57.9789C47.5872 57.1374 45.1775 56.3851 42.1515 55.8836C41.8696 55.8454 41.5983 55.751 41.3536 55.606C41.1089 55.461 40.8958 55.2684 40.7269 55.0395C40.558 54.8106 40.4368 54.5501 40.3704 54.2735C40.3041 53.9969 40.294 53.7098 40.3406 53.4292C40.3873 53.1486 40.4898 52.8802 40.6421 52.64C40.7945 52.3998 40.9934 52.1926 41.2273 52.0307C41.4612 51.8688 41.7252 51.7555 42.0037 51.6975C42.2822 51.6395 42.5694 51.638 42.8485 51.6931C46.121 52.2329 49.0195 53.0871 51.1657 54.2176C53.125 55.2504 55.25 56.9504 55.25 59.5004C55.25 61.3109 54.145 62.6964 52.938 63.6526C51.7055 64.6216 50.048 65.4079 48.195 66.0241C44.4635 67.2694 39.4443 68.0004 34 68.0004C28.5557 68.0004 23.5365 67.2694 19.805 66.0241C17.952 65.4079 16.2945 64.6216 15.062 63.6526C13.855 62.6964 12.75 61.3109 12.75 59.5004C12.75 56.9546 14.875 55.2504 16.8342 54.2176C18.9805 53.0871 21.879 52.2329 25.1515 51.6931C25.7072 51.601 26.2767 51.7332 26.7349 52.0607C27.1931 52.3882 27.5026 52.8843 27.5953 53.4399Z" fill="#0760C5"/>
</svg>
