<svg width="25" height="24" viewBox="0 0 25 24" fill="none" xmlns="http://www.w3.org/2000/svg">
<g clip-path="url(#clip0_56_272)">
<path d="M0.5 12C0.5 8.8174 1.76428 5.76516 4.01472 3.51472C6.26516 1.26428 9.3174 0 12.5 0C15.6826 0 18.7348 1.26428 20.9853 3.51472C23.2357 5.76516 24.5 8.8174 24.5 12C24.5 15.1826 23.2357 18.2348 20.9853 20.4853C18.7348 22.7357 15.6826 24 12.5 24C9.3174 24 6.26516 22.7357 4.01472 20.4853C1.76428 18.2348 0.5 15.1826 0.5 12V12ZM11.75 1.6155C10.745 1.9215 9.7475 2.8455 8.9195 4.398C8.705 4.8 8.5055 5.238 8.327 5.706C9.3845 5.9415 10.535 6.0915 11.75 6.1365V1.6155ZM6.8735 5.3085C7.0865 4.7325 7.3295 4.1925 7.595 3.6915C7.85436 3.20108 8.15388 2.73298 8.4905 2.292C7.2135 2.8212 6.05338 3.59699 5.0765 4.575C5.6195 4.851 6.221 5.0985 6.8735 5.31V5.3085ZM5.7635 11.25C5.8175 9.645 6.0455 8.1195 6.4175 6.738C5.60555 6.47834 4.81963 6.14338 4.07 5.7375C2.87532 7.34153 2.16623 9.25481 2.027 11.25H5.762H5.7635ZM7.8635 7.1385C7.50987 8.48215 7.30861 9.86133 7.2635 11.25H11.75V7.6365C10.385 7.5915 9.0755 7.419 7.8635 7.1385ZM13.25 7.635V11.25H17.735C17.6904 9.86138 17.4896 8.4822 17.1365 7.1385C15.9245 7.419 14.615 7.59 13.25 7.6365V7.635ZM7.265 12.75C7.3175 14.2305 7.529 15.621 7.8635 16.8615C9.14009 16.5718 10.4416 16.4055 11.75 16.365V12.75H7.265ZM13.25 12.75V16.3635C14.615 16.4085 15.9245 16.581 17.1365 16.8615C17.471 15.621 17.6825 14.2305 17.7365 12.75H13.25ZM8.327 18.294C8.507 18.762 8.705 19.2 8.9195 19.602C9.7475 21.1545 10.7465 22.077 11.75 22.3845V17.865C10.535 17.91 9.3845 18.06 8.327 18.2955V18.294ZM8.492 21.708C8.15484 21.2671 7.85482 20.799 7.595 20.3085C7.31873 19.7857 7.0777 19.245 6.8735 18.69C6.25645 18.8883 5.65566 19.134 5.0765 19.425C6.05338 20.403 7.2135 21.1788 8.4905 21.708H8.492ZM6.4175 17.262C6.02806 15.7878 5.80814 14.274 5.762 12.75H2.027C2.16615 14.7452 2.87524 16.6585 4.07 18.2625C4.775 17.8755 5.5625 17.5395 6.4175 17.262V17.262ZM16.5095 21.708C17.7859 21.1791 18.9455 20.4038 19.922 19.4265C19.3433 19.1356 18.7431 18.8899 18.1265 18.6915C17.9222 19.246 17.6812 19.7862 17.405 20.3085C17.1457 20.799 16.8462 21.2671 16.5095 21.708V21.708ZM13.25 17.8635V22.3845C14.255 22.0785 15.2525 21.1545 16.0805 19.602C16.295 19.2 16.4945 18.762 16.673 18.294C15.5474 18.0472 14.4017 17.9036 13.25 17.865V17.8635ZM18.5825 17.262C19.4375 17.5395 20.225 17.8755 20.93 18.2625C22.1248 16.6585 22.8339 14.7452 22.973 12.75H19.238C19.1919 14.274 18.9719 15.7878 18.5825 17.262V17.262ZM22.973 11.25C22.8339 9.25479 22.1248 7.34149 20.93 5.7375C20.225 6.1245 19.4375 6.4605 18.5825 6.738C18.9545 8.118 19.1825 9.645 19.238 11.25H22.973ZM17.405 3.6915C17.6705 4.1925 17.9135 4.7325 18.128 5.3085C18.7441 5.11012 19.3438 4.86438 19.922 4.5735C18.9453 3.59673 17.7857 2.82198 16.5095 2.2935C16.8365 2.718 17.1365 3.189 17.405 3.6915V3.6915ZM16.673 5.706C16.5026 5.25823 16.3047 4.8214 16.0805 4.398C15.2525 2.8455 14.255 1.923 13.25 1.6155V6.135C14.465 6.09 15.6155 5.94 16.673 5.7045V5.706Z" fill="white"/>
</g>
<defs>
<clipPath id="clip0_56_272">
<rect width="24" height="24" fill="white" transform="translate(0.5)"/>
</clipPath>
</defs>
</svg>
