<svg width="54" height="67" viewBox="0 0 54 67" fill="none" xmlns="http://www.w3.org/2000/svg">
<path d="M29.672 0.195858C25.609 -0.819892 21.835 2.25286 21.563 6.23086C21.257 10.6976 20.5855 14.7989 19.744 17.2384C19.2127 18.7684 17.7083 21.5436 15.324 24.2041C12.9567 26.8519 9.8755 29.2106 6.26725 30.1966C3.41125 30.9744 0.5 33.4479 0.5 37.0604V54.0646C0.5 57.6559 3.3985 60.2866 6.654 60.6309C11.2015 61.1154 13.301 62.3946 15.443 63.7036L15.647 63.8311C16.803 64.5324 18.1035 65.3101 19.7695 65.8881C21.4567 66.4661 23.4287 66.8104 26 66.8104H40.875C44.8573 66.8104 47.6707 64.7831 49.0945 62.2884C49.7826 61.1111 50.1545 59.7758 50.174 58.4124C50.174 57.7664 50.0763 57.0864 49.8467 56.4404C50.701 55.3226 51.4618 53.9839 51.9207 52.6111C52.3882 51.2086 52.6517 49.3726 51.9377 47.7279C52.231 47.1754 52.4478 46.5846 52.6135 46.0151C52.9408 44.8676 53.0938 43.6011 53.0938 42.3729C53.0938 41.1489 52.9408 39.8866 52.6135 38.7349C52.4648 38.2054 52.2685 37.6904 52.027 37.1964C52.7712 36.1376 53.25 34.9154 53.423 33.6329C53.5961 32.3504 53.4584 31.045 53.0215 29.8269C52.146 27.3109 50.123 25.1519 47.9215 24.4209C44.3218 23.2224 40.2588 23.2479 37.2285 23.5241C36.5994 23.5807 35.9716 23.6516 35.3458 23.7366C36.8201 17.4227 36.7296 10.8443 35.0822 4.57336C34.7956 3.56861 34.2458 2.65867 33.4897 1.93763C32.7335 1.2166 31.7985 0.710649 30.7812 0.472108L29.672 0.195858ZM40.875 62.5646H26C23.8325 62.5646 22.3323 62.2714 21.155 61.8676C19.9608 61.4554 19.0045 60.8986 17.857 60.1974L17.687 60.0954C15.3283 58.6546 12.5955 56.9886 7.1045 56.4064C5.68925 56.2534 4.75 55.1739 4.75 54.0689V37.0604C4.75 35.9809 5.7105 34.7526 7.385 34.2979C12.0387 33.0229 15.7873 30.0649 18.4945 27.0389C21.1933 24.0214 23.0165 20.7701 23.756 18.6324C24.7887 15.6574 25.4858 11.1184 25.8045 6.51986C25.9107 4.98136 27.3345 3.99536 28.6393 4.31836L29.7528 4.59886C30.4328 4.76886 30.8492 5.20661 30.9767 5.68261C32.7124 12.2957 32.4984 19.2696 30.3605 25.7639C30.2395 26.1251 30.2178 26.5121 30.2977 26.8846C30.3776 27.257 30.5561 27.6012 30.8146 27.881C31.0731 28.1608 31.4021 28.3659 31.7671 28.475C32.132 28.584 32.5196 28.593 32.8893 28.5009L32.902 28.4966L32.9615 28.4839L33.208 28.4244C34.6613 28.1157 36.1315 27.8929 37.611 27.7571C40.4288 27.5021 43.8032 27.5276 46.5785 28.4541C47.3223 28.7006 48.491 29.7291 49.001 31.2166C49.4557 32.5256 49.3708 34.0641 47.8705 35.5601L46.3703 37.0604L47.8705 38.5649C48.0532 38.7476 48.3167 39.1641 48.525 39.9036C48.729 40.6134 48.8438 41.4761 48.8438 42.3729C48.8438 43.2739 48.729 44.1324 48.525 44.8464C48.3125 45.5859 48.0532 46.0024 47.8705 46.1851L46.3703 47.6854L47.8705 49.1899C48.0703 49.3896 48.3338 49.9421 47.8918 51.2639C47.4312 52.5456 46.6991 53.7126 45.7455 54.6851L44.2453 56.1854L45.7455 57.6899C45.771 57.7111 45.9198 57.9024 45.9198 58.4124C45.9009 59.0357 45.7239 59.6441 45.4055 60.1804C44.7043 61.4044 43.2677 62.5604 40.875 62.5604V62.5646Z" fill="#0760C5"/>
</svg>
