<svg width="26" height="26" viewBox="0 0 26 26" fill="none" xmlns="http://www.w3.org/2000/svg">
<path fill-rule="evenodd" clip-rule="evenodd" d="M3.06379 0.829065C3.34812 0.545146 3.68953 0.324899 4.06541 0.182919C4.44128 0.0409389 4.84304 -0.0195318 5.24405 0.00551423C5.64506 0.0305602 6.03618 0.140551 6.39147 0.328197C6.74676 0.515844 7.05812 0.776861 7.30491 1.09395L10.2217 4.84137C10.7563 5.52878 10.9448 6.4242 10.7336 7.26924L9.84471 10.8281C9.79875 11.0125 9.80123 11.2056 9.85191 11.3887C9.90259 11.5717 9.99975 11.7386 10.1339 11.8731L14.1264 15.8659C14.2611 16.0004 14.4282 16.0977 14.6116 16.1484C14.795 16.1991 14.9884 16.2014 15.1729 16.1551L18.7299 15.2662C19.1469 15.162 19.5821 15.1539 20.0027 15.2425C20.4233 15.3312 20.8182 15.5144 21.1576 15.7781L24.9047 18.6935C26.2518 19.7417 26.3753 21.7324 25.1696 22.9366L23.4894 24.6169C22.2869 25.8195 20.4897 26.3476 18.8144 25.7577C14.5265 24.2489 10.6333 21.7939 7.42353 18.5749C4.20498 15.3654 1.7502 11.4724 0.241258 7.18473C-0.346974 5.5109 0.181135 3.71195 1.3836 2.50939L3.06379 0.829065Z" fill="black"/>
</svg>
