<svg width="68" height="68" viewBox="0 0 68 68" fill="none" xmlns="http://www.w3.org/2000/svg">
<g clip-path="url(#clip0_39_1037)">
<path d="M21.25 26.5625C21.25 27.4079 20.9142 28.2187 20.3164 28.8165C19.7186 29.4142 18.9079 29.75 18.0625 29.75C17.2171 29.75 16.4064 29.4142 15.8086 28.8165C15.2108 28.2187 14.875 27.4079 14.875 26.5625C14.875 25.7172 15.2108 24.9064 15.8086 24.3086C16.4064 23.7109 17.2171 23.375 18.0625 23.375C18.9079 23.375 19.7186 23.7109 20.3164 24.3086C20.9142 24.9064 21.25 25.7172 21.25 26.5625ZM26.0865 20.2046C28.6102 19.4841 31.2225 19.1208 33.847 19.125C36.6775 19.125 39.3848 19.5373 41.8923 20.2853C42.4281 20.4331 43.0005 20.3651 43.4868 20.0958C43.9731 19.8264 44.3345 19.3773 44.4935 18.8447C44.6525 18.312 44.5965 17.7383 44.3374 17.2465C44.0784 16.7547 43.6369 16.3839 43.1077 16.2138C40.1021 15.3205 36.9825 14.8696 33.847 14.875C30.7275 14.875 27.7227 15.3128 24.9135 16.116C24.3713 16.2716 23.9132 16.6362 23.6398 17.1295C23.3664 17.6229 23.3002 18.2046 23.4558 18.7468C23.6113 19.289 23.9759 19.7471 24.4692 20.0205C24.9626 20.2939 25.5443 20.3601 26.0865 20.2046Z" fill="#0760C5"/>
<path fill-rule="evenodd" clip-rule="evenodd" d="M33.8471 6.49023C21.1949 6.49023 10.1704 13.7322 6.98714 24.0215H4.64964C4.03003 24.0222 3.41806 24.1583 2.85661 24.4204C2.29516 24.6825 1.79781 25.0642 1.39939 25.5387C1.00098 26.0132 0.711146 26.5691 0.550193 27.1675C0.38924 27.7658 0.361062 28.3921 0.467635 29.0025L1.54714 35.2075C1.80439 36.6868 2.57553 38.0278 3.72466 38.9942C4.87378 39.9606 6.32715 40.4904 7.82864 40.4902H8.94639C10.2214 42.6705 11.8704 44.6467 13.8126 46.3637L10.7144 56.891C10.6212 57.2079 10.6032 57.5423 10.6619 57.8674C10.7205 58.1925 10.8542 58.4995 11.0522 58.764C11.2502 59.0284 11.5072 59.243 11.8027 59.3908C12.0981 59.5386 12.424 59.6154 12.7544 59.6152H21.2544C21.6928 59.6153 22.1206 59.4797 22.479 59.2271C22.8374 58.9745 23.1088 58.6172 23.2561 58.2042L25.3046 52.4625C28.0034 53.1977 30.8721 53.5972 33.8514 53.5972C36.8561 53.5972 39.7504 53.1935 42.4704 52.4412L44.7781 58.2722C44.9349 58.6684 45.2072 59.0083 45.5596 59.2478C45.912 59.4873 46.3283 59.6153 46.7544 59.6152H55.2544C55.586 59.6149 55.9129 59.537 56.209 59.3877C56.505 59.2384 56.7621 59.0219 56.9595 58.7555C57.1569 58.4891 57.2893 58.1802 57.3459 57.8535C57.4026 57.5268 57.382 57.1913 57.2859 56.874L54.0516 46.2235C58.6926 42.0542 61.6251 36.3762 61.6251 30.0437C61.6251 29.4275 61.5954 28.8112 61.5401 28.212C62.6494 27.7445 63.6991 27.0815 64.5364 26.325C65.8751 27.6255 68.0001 27.6255 68.0001 24.5527C68.0001 25.5005 65.8751 25.5005 66.0409 24.4422C66.2194 24.1011 66.3482 23.7361 66.4234 23.3585C66.5233 22.8662 66.497 22.3567 66.3469 21.8774C66.1968 21.398 65.9278 20.9645 65.5649 20.6172C65.1822 20.2228 64.6786 19.9675 64.1342 19.8921C63.5897 19.8166 63.0357 19.9252 62.5601 20.2007C62.1228 20.4424 61.7499 20.7854 61.4726 21.201C61.1952 21.6166 61.0217 22.0927 60.9664 22.5892C60.8644 23.622 61.3149 24.6292 62.3264 25.3687C61.9754 25.6114 61.6075 25.8287 61.2256 26.019C58.9561 14.697 47.2686 6.49023 33.8471 6.49023ZM10.6931 26.6055C12.6269 17.825 22.0279 10.7402 33.8471 10.7402C47.2176 10.7402 57.3751 19.7247 57.3751 30.0437C57.3751 35.3732 54.7231 40.2862 50.2776 43.8477C49.9472 44.1135 49.7039 44.4721 49.5789 44.8773C49.454 45.2825 49.4531 45.7158 49.5764 46.1215L52.3814 55.3652H48.1951L45.6876 49.0455C45.4857 48.5362 45.095 48.1246 44.5969 47.8965C44.0988 47.6685 43.5318 47.6416 43.0144 47.8215C40.2051 48.799 37.1069 49.3472 33.8471 49.3472C30.7275 49.3553 27.6287 48.8395 24.6799 47.8215C24.1506 47.6375 23.57 47.67 23.0646 47.912C22.5591 48.154 22.1697 48.5858 21.9811 49.1135L19.7499 55.3652H15.5891L18.2794 46.2277C18.3994 45.8206 18.3947 45.3867 18.266 44.9822C18.1372 44.5777 17.8902 44.2211 17.5569 43.9582C15.283 42.1982 13.4207 39.9631 12.0999 37.409C11.923 37.0579 11.6521 36.7628 11.3175 36.5564C10.9828 36.3501 10.5975 36.2406 10.2044 36.2402H7.82439C7.32458 36.2397 6.84097 36.063 6.45854 35.7412C6.07611 35.4194 5.81935 34.9731 5.73339 34.4807L4.65389 28.2757H8.61914C9.10342 28.2753 9.57303 28.1095 9.95021 27.8058C10.3274 27.502 10.5895 27.0785 10.6931 26.6055ZM64.3324 22.9632C64.2567 23.2863 64.1149 23.5902 63.9159 23.8557C63.8523 23.8226 63.7899 23.7871 63.7289 23.7495C63.1084 23.367 63.0616 23.0057 63.0829 22.8017C63.1038 22.6492 63.1595 22.5036 63.2458 22.3761C63.332 22.2486 63.4464 22.1427 63.5801 22.0665C63.7884 21.9517 63.9201 21.9772 64.0604 22.1175C64.1785 22.2202 64.2663 22.3534 64.3143 22.5024C64.3622 22.6515 64.3685 22.8109 64.3324 22.9632Z" fill="#0760C5"/>
</g>
<defs>
<clipPath id="clip0_39_1037">
<rect width="68" height="68" fill="white"/>
</clipPath>
</defs>
</svg>
