<svg width="68" height="68" viewBox="0 0 68 68" fill="none" xmlns="http://www.w3.org/2000/svg">
<g clip-path="url(#clip0_39_1101)">
<path d="M34.0156 4C42.647 4.00009 49.6445 10.9975 49.6445 19.6289C49.6444 26.5174 45.1873 32.3645 39 34.4453V48.1279H60.0312C64.4493 48.1281 68.0311 51.7099 68.0312 56.1279V63.7568H0V56.1279C0.000194011 51.7098 3.58184 48.1279 8 48.1279H30V34.7354C23.3146 32.9628 18.3868 26.8719 18.3867 19.6289C18.3868 10.9974 25.3841 4 34.0156 4ZM5.51562 60.0791H62.5146V52.7246H5.51562V60.0791ZM34.0156 7.67773C27.4151 7.67773 22.0645 13.0284 22.0645 19.6289C22.0646 26.2293 27.4152 31.5801 34.0156 31.5801C40.616 31.58 45.9666 26.2293 45.9668 19.6289C45.9667 13.0284 40.6161 7.6778 34.0156 7.67773Z" fill="white"/>
</g>
<defs>
<clipPath id="clip0_39_1101">
<rect width="68" height="68" fill="white"/>
</clipPath>
</defs>
</svg>
