<svg width="68" height="52" viewBox="0 0 68 52" fill="none" xmlns="http://www.w3.org/2000/svg">
<path d="M9.2816e-09 6.875C9.2816e-09 5.18425 0.67165 3.56274 1.86719 2.36719C3.06274 1.17165 4.68425 0.5 6.375 0.5H44.625C46.3158 0.5 47.9373 1.17165 49.1328 2.36719C50.3284 3.56274 51 5.18425 51 6.875V13.25H55.335C56.2901 13.2509 57.2329 13.4663 58.0936 13.8805C58.9542 14.2946 59.7109 14.8969 60.3075 15.6428L66.6017 23.5053C67.5074 24.6365 68.0006 26.0426 68 27.4917V36.625C68 38.3158 67.3284 39.9373 66.1328 41.1328C64.9373 42.3284 63.3158 43 61.625 43H59.5C59.5 45.2543 58.6045 47.4163 57.0104 49.0104C55.4163 50.6045 53.2543 51.5 51 51.5C48.7457 51.5 46.5837 50.6045 44.9896 49.0104C43.3955 47.4163 42.5 45.2543 42.5 43H21.25C21.2524 44.133 21.0284 45.255 20.5909 46.3002C20.1535 47.3453 19.5115 48.2924 18.7028 49.0859C17.894 49.8793 16.9348 50.5031 15.8815 50.9205C14.8282 51.3379 13.7021 51.5405 12.5693 51.5164C11.4366 51.4923 10.3201 51.242 9.28553 50.7803C8.25092 50.3185 7.31908 49.6545 6.54478 48.8274C5.77048 48.0003 5.16935 47.0267 4.77672 45.9639C4.3841 44.9012 4.2079 43.7706 4.2585 42.6387C3.01345 42.2005 1.93512 41.3867 1.17234 40.3095C0.409554 39.2323 -7.11958e-05 37.9449 9.2816e-09 36.625L9.2816e-09 6.875ZM5.4995 38.563C6.2679 37.305 7.35043 36.2685 8.64067 35.5555C9.93091 34.8426 11.3845 34.4776 12.8585 34.4964C14.3325 34.5153 15.7763 34.9174 17.0478 35.6631C18.3194 36.4089 19.375 37.4727 20.111 38.75H43.639C44.3866 37.4592 45.4592 36.3866 46.75 35.639V6.875C46.75 6.31141 46.5261 5.77091 46.1276 5.3724C45.7291 4.97388 45.1886 4.75 44.625 4.75H6.375C5.81141 4.75 5.27091 4.97388 4.8724 5.3724C4.47388 5.77091 4.25 6.31141 4.25 6.875V36.625C4.24967 37.034 4.36738 37.4344 4.58902 37.7782C4.81066 38.122 5.1268 38.3945 5.4995 38.563ZM51 34.5C52.492 34.5 53.9578 34.8928 55.2499 35.6388C56.542 36.3849 57.615 37.4579 58.361 38.75H61.625C62.1886 38.75 62.7291 38.5261 63.1276 38.1276C63.5261 37.7291 63.75 37.1886 63.75 36.625V27.4875C63.7491 27.0053 63.5843 26.5376 63.2825 26.1615L56.9925 18.299C56.7938 18.0501 56.5416 17.8491 56.2547 17.7108C55.9678 17.5725 55.6535 17.5005 55.335 17.5H51V34.5ZM12.75 38.75C11.6228 38.75 10.5418 39.1978 9.7448 39.9948C8.94777 40.7918 8.5 41.8728 8.5 43C8.5 44.1272 8.94777 45.2082 9.7448 46.0052C10.5418 46.8022 11.6228 47.25 12.75 47.25C13.8772 47.25 14.9582 46.8022 15.7552 46.0052C16.5522 45.2082 17 44.1272 17 43C17 41.8728 16.5522 40.7918 15.7552 39.9948C14.9582 39.1978 13.8772 38.75 12.75 38.75ZM51 38.75C49.8728 38.75 48.7918 39.1978 47.9948 39.9948C47.1978 40.7918 46.75 41.8728 46.75 43C46.75 44.1272 47.1978 45.2082 47.9948 46.0052C48.7918 46.8022 49.8728 47.25 51 47.25C52.1272 47.25 53.2082 46.8022 54.0052 46.0052C54.8022 45.2082 55.25 44.1272 55.25 43C55.25 41.8728 54.8022 40.7918 54.0052 39.9948C53.2082 39.1978 52.1272 38.75 51 38.75Z" fill="#0760C5"/>
</svg>
