<svg width="68" height="63" viewBox="0 0 68 63" fill="none" xmlns="http://www.w3.org/2000/svg">
<path d="M51.578 0.385864C52.5175 0.150853 53.4982 0.132981 54.4456 0.333603C55.3931 0.534225 56.2824 0.948068 57.046 1.54372C57.8096 2.13936 58.4274 2.90115 58.8526 3.77126C59.2779 4.64137 59.4992 5.59692 59.5 6.56536V11.7504H61.625C63.3158 11.7504 64.9373 12.422 66.1328 13.6176C67.3284 14.8131 68 16.4346 68 18.1254V56.3754C68 58.0661 67.3284 59.6876 66.1328 60.8832C64.9373 62.0787 63.3158 62.7504 61.625 62.7504H6.375C4.68425 62.7504 3.06274 62.0787 1.86719 60.8832C0.67165 59.6876 4.16889e-07 58.0661 4.16889e-07 56.3754V18.1254C-0.000592707 16.4842 0.63173 14.9061 1.76535 13.7194C2.89898 12.5328 4.44657 11.829 6.086 11.7546L51.578 0.385864ZM23.6385 11.7504H55.25V6.56536C55.2493 6.24294 55.1752 5.92491 55.0333 5.63536C54.8915 5.34581 54.6856 5.09234 54.4313 4.89413C54.177 4.69593 53.8809 4.55819 53.5655 4.49136C53.2501 4.42452 52.9236 4.43034 52.6107 4.50836L23.6385 11.7504ZM6.375 16.0004C5.81142 16.0004 5.27091 16.2242 4.8724 16.6228C4.47388 17.0213 4.25 17.5618 4.25 18.1254V56.3754C4.25 56.9389 4.47388 57.4795 4.8724 57.878C5.27091 58.2765 5.81142 58.5004 6.375 58.5004H61.625C62.1886 58.5004 62.7291 58.2765 63.1276 57.878C63.5261 57.4795 63.75 56.9389 63.75 56.3754V18.1254C63.75 17.5618 63.5261 17.0213 63.1276 16.6228C62.7291 16.2242 62.1886 16.0004 61.625 16.0004H6.375Z" fill="#0760C5"/>
</svg>
