<svg width="24" height="24" viewBox="0 0 24 24" fill="none" xmlns="http://www.w3.org/2000/svg">
<g clip-path="url(#clip0_56_303)">
<path d="M16.7644 21.6439C12.7669 21.6439 9.52539 18.9439 9.52539 15.6169C9.52539 12.2869 12.7639 9.58691 16.7614 9.58691C20.7589 9.58691 24.0004 12.2869 24.0004 15.6169C24.0004 17.4319 23.0254 19.0684 21.5014 20.1709C21.4166 20.2311 21.3534 20.3169 21.321 20.4158C21.2886 20.5146 21.2887 20.6212 21.3214 20.7199L21.6484 21.9349C21.6686 21.9919 21.6832 22.0506 21.6919 22.1104C21.6904 22.1744 21.6643 22.2353 21.619 22.2806C21.5738 22.3258 21.5129 22.3519 21.4489 22.3534C21.3996 22.3515 21.3518 22.3359 21.3109 22.3084L19.7254 21.3934C19.6092 21.3236 19.4769 21.2854 19.3414 21.2824C19.2693 21.2828 19.1975 21.2934 19.1284 21.3139C18.3598 21.5345 17.564 21.6456 16.7644 21.6439V21.6439ZM13.5964 14.3134C13.6877 14.4535 13.8136 14.5676 13.9619 14.6448C14.1103 14.7219 14.276 14.7594 14.4431 14.7536C14.6102 14.7478 14.773 14.6989 14.9157 14.6117C15.0583 14.5245 15.176 14.402 15.2574 14.2559C15.3388 14.1098 15.381 13.9452 15.38 13.778C15.3791 13.6108 15.3349 13.4467 15.2519 13.3016C15.1688 13.1565 15.0497 13.0353 14.906 12.9498C14.7624 12.8642 14.599 12.8173 14.4319 12.8134C14.3045 12.8132 14.1782 12.8382 14.0605 12.8869C13.9427 12.9356 13.8358 13.0071 13.7457 13.0973C13.6557 13.1875 13.5844 13.2946 13.5358 13.4124C13.4873 13.5302 13.4625 13.6565 13.4629 13.7839C13.4534 13.97 13.5004 14.1546 13.5979 14.3134H13.5964ZM18.4444 14.3149C18.5361 14.455 18.6626 14.5688 18.8115 14.6455C18.9603 14.7221 19.1265 14.7588 19.2938 14.7521C19.4611 14.7454 19.6238 14.6954 19.766 14.6071C19.9082 14.5188 20.0252 14.3952 20.1054 14.2482C20.1856 14.1013 20.2264 13.9361 20.2238 13.7687C20.2212 13.6013 20.1752 13.4374 20.0904 13.2931C20.0056 13.1487 19.8849 13.0288 19.7399 12.945C19.595 12.8612 19.4308 12.8164 19.2634 12.8149C19.0073 12.8153 18.7618 12.9172 18.5808 13.0983C18.3997 13.2794 18.2978 13.5248 18.2974 13.7809C18.2917 13.9696 18.3429 14.1557 18.4444 14.3149Z" fill="black"/>
<path d="M0 10.239C0 12.4215 1.1715 14.3865 3.0015 15.723C3.10363 15.7948 3.17974 15.8978 3.21841 16.0165C3.25708 16.1352 3.25624 16.2633 3.216 16.3815L2.9745 17.2815L2.8245 17.841C2.79846 17.9083 2.78229 17.9791 2.7765 18.051C2.7763 18.0891 2.78365 18.1268 2.79813 18.162C2.81261 18.1972 2.83393 18.2292 2.86085 18.2562C2.88777 18.2831 2.91976 18.3044 2.95498 18.3189C2.99019 18.3333 3.02793 18.3407 3.066 18.3405C3.1245 18.3405 3.1815 18.3255 3.2325 18.297L5.1345 17.1975C5.27434 17.1139 5.43362 17.0684 5.5965 17.0655C5.6835 17.0655 5.7705 17.079 5.853 17.103C6.64681 17.3308 7.46525 17.4617 8.2905 17.493C8.1132 16.8833 8.0238 16.2514 8.025 15.6165C8.025 11.2125 12.2025 8.0865 16.761 8.0865C16.836 8.0865 16.911 8.0865 16.986 8.0895C15.8805 5.1435 12.588 3 8.694 3C3.894 3 0 6.24 0 10.239ZM6.948 7.9065C6.948 8.21282 6.82631 8.5066 6.60971 8.72321C6.3931 8.93981 6.09933 9.0615 5.793 9.0615C5.48667 9.0615 5.1929 8.93981 4.97629 8.72321C4.75969 8.5066 4.638 8.21282 4.638 7.9065C4.638 7.60017 4.75969 7.3064 4.97629 7.08979C5.1929 6.87319 5.48667 6.7515 5.793 6.7515C6.09933 6.7515 6.3931 6.87319 6.60971 7.08979C6.82631 7.3064 6.948 7.60017 6.948 7.9065V7.9065ZM12.7605 7.9065C12.7605 8.21282 12.6388 8.5066 12.4222 8.72321C12.2056 8.93981 11.9118 9.0615 11.6055 9.0615C11.2992 9.0615 11.0054 8.93981 10.7888 8.72321C10.5722 8.5066 10.4505 8.21282 10.4505 7.9065C10.4505 7.60017 10.5722 7.3064 10.7888 7.08979C11.0054 6.87319 11.2992 6.7515 11.6055 6.7515C11.9118 6.7515 12.2056 6.87319 12.4222 7.08979C12.6388 7.3064 12.7605 7.60017 12.7605 7.9065Z" fill="black"/>
</g>
<defs>
<clipPath id="clip0_56_303">
<rect width="24" height="24" fill="white"/>
</clipPath>
</defs>
</svg>
