<svg width="40" height="40" viewBox="0 0 40 40" fill="none" xmlns="http://www.w3.org/2000/svg">
<path d="M32.1344 30.3653C32.2505 30.4815 32.3427 30.6194 32.4055 30.7711C32.4684 30.9228 32.5007 31.0855 32.5007 31.2497C32.5007 31.414 32.4684 31.5766 32.4055 31.7283C32.3427 31.8801 32.2505 32.018 32.1344 32.1341C32.0183 32.2502 31.8804 32.3424 31.7286 32.4052C31.5769 32.4681 31.4143 32.5004 31.25 32.5004C31.0858 32.5004 30.9231 32.4681 30.7714 32.4052C30.6197 32.3424 30.4818 32.2502 30.3656 32.1341L20 21.7669L9.6344 32.1341C9.39985 32.3686 9.08173 32.5004 8.75002 32.5004C8.41832 32.5004 8.1002 32.3686 7.86565 32.1341C7.6311 31.8995 7.49933 31.5814 7.49933 31.2497C7.49933 30.918 7.6311 30.5999 7.86565 30.3653L18.2328 19.9997L7.86565 9.63409C7.6311 9.39954 7.49933 9.08142 7.49933 8.74972C7.49933 8.41801 7.6311 8.09989 7.86565 7.86534C8.1002 7.63079 8.41832 7.49902 8.75002 7.49902C9.08173 7.49902 9.39985 7.63079 9.6344 7.86534L20 18.2325L30.3656 7.86534C30.6002 7.63079 30.9183 7.49902 31.25 7.49902C31.5817 7.49902 31.8998 7.63079 32.1344 7.86534C32.369 8.09989 32.5007 8.41801 32.5007 8.74972C32.5007 9.08142 32.369 9.39954 32.1344 9.63409L21.7672 19.9997L32.1344 30.3653Z" fill="#0760C5"/>
</svg>
